<?xml version="1.0" encoding="UTF-8"?>
<svg width="16px" height="16px" viewBox="0 0 16 16" version="1.1" xmlns="http://www.w3.org/2000/svg" xmlns:xlink="http://www.w3.org/1999/xlink">
    <title>数译_个人中心</title>
    <g id="页面-1" stroke="none" stroke-width="1" fill="none" fill-rule="evenodd">
        <g id="个人中心" transform="translate(-40.000000, -267.000000)" fill="#000000" fill-rule="nonzero">
            <g id="数译_个人中心" transform="translate(40.000000, 267.000000)">
                <rect id="矩形" opacity="0" x="0" y="0" width="16" height="16"></rect>
                <path d="M8,8 C6.53333333,8 5.33333333,6.8 5.33333333,5.33333333 C5.33333333,3.86666666 6.53333333,2.66666667 8,2.66666667 C9.46666667,2.66666667 10.6666667,3.86666667 10.6666667,5.33333333 C10.6666667,6.79999998 9.46666667,8 8,8 Z M8,4 C7.26666667,4 6.66666667,4.6 6.66666667,5.33333333 C6.66666667,6.06666666 7.26666667,6.66666667 8,6.66666667 C8.73333333,6.66666667 9.33333333,6.06666667 9.33333333,5.33333333 C9.33333333,4.59999998 8.73333333,4 8,4 Z M8,0 C3.6,0 0,3.6 0,8 C0,12.4 3.6,16 8,16 C12.4,16 16,12.4 16,8 C16,3.6 12.4,0 8,0 Z M4,13 C4.66666667,11.4 6.2,10.3333333 8,10.3333333 C9.8,10.3333333 11.3333333,11.4 12,13 C11.0666667,13.9333333 9.86666667,14.4666667 8.6,14.6 L7.53333333,14.6 C6.13333333,14.5333333 4.93333333,13.9333333 4,13 Z M13.1333333,12.2666667 C12.2,10.2666667 10.2666667,9 8,9 C5.73333334,9 3.8,10.2666667 2.86666667,12.2666667 C1.93333333,11.1333333 1.33333333,9.6 1.33333333,8 C1.33333333,4.33333333 4.33333333,1.33333333 8,1.33333333 C11.6666667,1.33333333 14.6666667,4.33333333 14.6666667,8 C14.6666667,9.6 14.0666667,11.1333333 13.1333333,12.2666667 Z" id="形状"></path>
            </g>
        </g>
    </g>
</svg>