<?xml version="1.0" encoding="UTF-8"?>
<svg width="16px" height="16px" viewBox="0 0 16 16" version="1.1" xmlns="http://www.w3.org/2000/svg" xmlns:xlink="http://www.w3.org/1999/xlink">
    <title>客服</title>
    <g id="页面-1" stroke="none" stroke-width="1" fill="none" fill-rule="evenodd">
        <g id="个人中心备份-2" transform="translate(-255.000000, -671.000000)" fill="#000000" fill-rule="nonzero">
            <g id="客服" transform="translate(255.000000, 671.000000)">
                <rect id="矩形" opacity="0" x="0" y="0" width="16" height="16"></rect>
                <path d="M13.8150781,7.05459375 C13.7761094,3.87484375 11.1893594,1.30845313 8.0000625,1.30845313 C4.81076562,1.30845313 2.22403125,3.87484375 2.18498437,7.05459375 C1.6511875,7.481375 1.30848437,8.136625 1.30848437,8.872875 C1.30848437,10.1580938 2.350625,11.2005156 3.63598437,11.2005156 C4.19690625,11.2005156 4.71126562,11.0016719 5.11307812,10.6715 L4.01651562,6.57895313 C3.8923125,6.55873438 3.7658125,6.54528125 3.636,6.54528125 C3.55046875,6.54528125 3.46639062,6.55057813 3.38314062,6.55975 C3.66367187,4.25740625 5.62170312,2.47223438 8.00014062,2.47223438 C10.37825,2.47223438 12.3365781,4.25739063 12.6170312,6.55975 C12.534125,6.55064063 12.4497656,6.54528125 12.3642187,6.54528125 C12.2344531,6.54528125 12.1076406,6.55876563 11.9833594,6.57895313 L10.887125,10.6695938 C11.1972344,10.9242031 11.5743281,11.1002031 11.9880469,11.1675313 C11.4390156,11.7573906 10.7407812,12.2067656 9.95089062,12.4498438 L9.85457812,12.5460313 C9.60817187,12.0930625 9.13392187,11.7820937 8.58204687,11.7820937 C7.7785,11.7820937 7.12732812,12.43325 7.12732812,13.2370625 C7.12732812,14.0406719 7.77846875,14.6918125 8.58204687,14.6918125 C9.24159375,14.6918125 9.79171875,14.2500938 9.97035937,13.6487188 C11.5758594,13.2551406 12.9208125,12.1982656 13.6933594,10.7818125 C14.2964062,10.3612344 14.6917813,9.66365625 14.6917813,8.87282813 C14.6917813,8.13676563 14.3487344,7.48129688 13.8151875,7.05453125 L13.8150781,7.05459375 Z" id="路径"></path>
            </g>
        </g>
    </g>
</svg>