<?xml version="1.0" encoding="UTF-8"?>
<svg width="16px" height="16px" viewBox="0 0 16 16" version="1.1" xmlns="http://www.w3.org/2000/svg" xmlns:xlink="http://www.w3.org/1999/xlink">
    <title>收藏</title>
    <g id="页面-1" stroke="none" stroke-width="1" fill="none" fill-rule="evenodd">
        <g id="个人中心" transform="translate(-40.000000, -315.000000)" fill="#000000" fill-rule="nonzero">
            <g id="收藏" transform="translate(40.000000, 315.000000)">
                <rect id="矩形" opacity="0" x="0" y="0" width="16" height="16"></rect>
                <path d="M4.39895359,14.5062336 C3.99856319,14.5062336 3.60987519,14.3160144 3.35920319,13.9974048 C3.13196959,13.7085616 3.04881278,13.3481232 3.13104639,13.0084992 C3.18798398,12.7735456 3.68301439,10.7768432 3.91739039,9.8318592 C3.1904688,9.20642241 1.68031198,7.90704641 1.61729598,7.85226561 C1.03310878,7.34559361 0.970452781,6.83262561 1.02092158,6.49164002 C1.10446878,5.92751522 1.50331198,5.51226561 2.06181278,5.40782722 L2.09901598,5.40087363 L5.45340639,5.09085762 L6.6781248,2.26445122 C6.77257759,2.01251362 6.90570239,1.80338881 7.0741088,1.64248322 C7.3262032,1.40159202 7.6468272,1.27428002 8.00134239,1.27428002 L8.01193598,1.27428002 C8.37598239,1.27700002 8.71837278,1.43321761 8.97621758,1.71417122 C9.14243678,1.89528002 9.23770238,2.08732802 9.28348317,2.17964002 L9.29523358,2.20334242 L10.492936,5.07070242 L13.8685296,5.39270242 L13.9180448,5.40373442 C14.1304672,5.45107842 14.4031232,5.53140642 14.6281392,5.73404642 C14.7978736,5.88692163 15.0002176,6.16478083 15.0002176,6.62042083 C15.0002176,7.12060803 14.7201232,7.43301442 14.515608,7.66112323 C14.4884832,7.69137283 14.4598272,7.72331044 14.4299824,7.75760803 L14.4119504,7.77832644 L14.392576,7.79779523 C14.3768416,7.81359203 14.3760912,7.81435844 12.1527168,9.81620164 C12.3811392,10.9022176 12.7997952,12.9043728 12.8343728,13.1524672 C12.8835136,13.5028272 12.7923264,13.8322336 12.5774976,14.0793104 C12.4146384,14.266608 12.1086544,14.4898736 11.5757952,14.4898736 C11.4380448,14.4898736 11.2584048,14.4661552 10.879936,14.2940768 L10.8434208,14.2774672 L8.00829759,12.6354064 C7.13265759,13.140656 5.22745439,14.2376256 4.95456319,14.3748752 C4.780688,14.4621408 4.593968,14.5062336 4.39895359,14.5062336 Z M3.0701712,6.94993759 C3.640968,7.44128159 4.71439041,8.36485919 5.36235841,8.922328 L5.74307681,9.2498752 L5.62213922,9.737312 C5.61624802,9.7610928 5.20010722,11.4384528 4.93263842,12.5191088 C5.66946722,12.0999216 6.80809122,11.4444992 7.60056002,10.9864208 L8.00929442,10.7501552 L11.0461856,12.5090928 C10.8818112,11.7063744 10.6349664,10.5266864 10.4590288,9.6928272 L10.3619504,9.23268641 L10.7114352,8.91801441 C10.7308096,8.90057761 12.2084192,7.57020161 12.907936,6.94034241 L9.36415522,6.602296 L7.99612322,3.3271248 L6.56632642,6.6268272 L3.0701712,6.94993759 Z" id="形状"></path>
            </g>
        </g>
    </g>
</svg>