<?xml version="1.0" encoding="UTF-8"?>
<svg width="16px" height="16px" viewBox="0 0 16 16" version="1.1" xmlns="http://www.w3.org/2000/svg" xmlns:xlink="http://www.w3.org/1999/xlink">
    <title>定位</title>
    <g id="页面-1" stroke="none" stroke-width="1" fill="none" fill-rule="evenodd">
        <g id="发布车位备份" transform="translate(-20.000000, -346.000000)" fill-rule="nonzero">
            <g id="定位" transform="translate(20.000000, 346.000000)">
                <rect id="矩形" fill="#000000" opacity="0" x="0" y="0" width="16" height="16"></rect>
                <path d="M7.5,8 C8.32842712,8 9,7.32842712 9,6.5 C9,5.67157288 8.32842712,5 7.5,5 C6.67157288,5 6,5.67157288 6,6.5 C6,7.32842712 6.67157288,8 7.5,8 Z" id="路径" fill="#686868"></path>
                <path d="M7.5,15 C7.15142384,15 6.81738079,14.8956481 6.53400331,14.698228 C6.27788907,14.5197923 6.08005298,14.2776118 5.95870695,13.9948242 L2.82031954,9.20262268 C2.28268543,8.34755743 2,7.37420055 2,6.38337444 C2,4.94542521 2.57210927,3.59353868 3.61091722,2.57675829 C4.64972517,1.5599779 6.03089901,1 7.5,1 C8.96910099,1 10.3502748,1.5599779 11.3890828,2.57675829 C12.4279089,3.59353868 13,4.94542521 13,6.38337444 C13,7.37892437 12.7148924,8.35616726 12.1754735,9.20944994 L9.03674007,14.0069813 C8.91371854,14.287309 8.71511755,14.5270652 8.45934934,14.7031657 C8.17733775,14.8973772 7.84560762,15 7.5,15 Z M7.00354305,13.4762376 L7.02528808,13.5332265 C7.10084934,13.7312171 7.28719371,13.8591524 7.5,13.8591524 C7.71096689,13.8591524 7.89685596,13.7331066 7.97358278,13.5380217 L7.99479967,13.4840453 L11.1866391,8.60547811 C11.6104487,7.93353672 11.8344371,7.16526501 11.8344371,6.38337444 C11.8344371,5.25015629 11.3835828,4.1847651 10.5649023,3.38344447 C9.74624007,2.58215949 8.65776821,2.14084756 7.5,2.14084756 C6.34223179,2.14084756 5.25375993,2.58214166 4.43507947,3.38344447 C3.61639901,4.18474728 3.16556291,5.25015629 3.16556291,6.38337444 C3.16556291,7.16128987 3.38749338,7.92622816 3.80746026,8.59590568 L7.00354305,13.4762376 Z" id="形状" fill="#686868"></path>
            </g>
        </g>
    </g>
</svg>