<?xml version="1.0" encoding="UTF-8"?>
<svg width="16px" height="16px" viewBox="0 0 16 16" version="1.1" xmlns="http://www.w3.org/2000/svg" xmlns:xlink="http://www.w3.org/1999/xlink">
    <title>退出编辑</title>
    <g id="页面-1" stroke="none" stroke-width="1" fill="none" fill-rule="evenodd">
        <g id="个人中心备份-2" transform="translate(-84.000000, -732.000000)" fill="#000000" fill-rule="nonzero">
            <g id="退出编辑" transform="translate(84.000000, 732.000000)">
                <rect id="矩形" opacity="0" x="0" y="0" width="16" height="16"></rect>
                <path d="M15.9646563,7.99996875 L11.6106563,10.9027031 L11.6106563,8.725625 L4.354,8.725625 L4.354,7.274375 L11.6106563,7.274375 L11.6106563,5.097375 L15.9646563,7.99996875 Z M7.98232813,3.64604688 L1.45132813,3.64604688 L1.45132813,12.3539688 L7.98232813,12.3539688 L7.98232813,10.1769688 L9.43365625,10.1769688 L9.43365625,13.805375 L7.98232813,13.805375 L1.45132813,13.805375 L0,13.805375 L0,12.3539688 L0,3.64604688 L0,2.19464062 L1.45132813,2.19464062 L7.98232813,2.19464062 L9.43365625,2.19464062 L9.43365625,5.82304687 L7.98232813,5.82304687 L7.98232813,3.64604688 Z" id="形状"></path>
            </g>
        </g>
    </g>
</svg>