<?xml version="1.0" encoding="UTF-8"?>
<svg width="16px" height="16px" viewBox="0 0 16 16" version="1.1" xmlns="http://www.w3.org/2000/svg" xmlns:xlink="http://www.w3.org/1999/xlink">
    <title>锁,密码,开锁,解锁</title>
    <g id="页面-1" stroke="none" stroke-width="1" fill="none" fill-rule="evenodd">
        <g id="发布车位备份" transform="translate(-20.000000, -538.000000)" fill-rule="nonzero">
            <g id="锁,密码,开锁,解锁" transform="translate(20.000000, 538.000000)">
                <rect id="矩形" fill="#000000" opacity="0" x="0" y="2.48081961e-05" width="15.9999752" height="15.9999752"></rect>
                <path d="M7.97811266,9.00002173 C7.16249019,9.0109592 6.49999225,9.6843946 6.49999225,10.5000171 C6.49999225,10.9890781 6.73436653,11.4250142 7.0968654,11.6984508 C7.34842712,11.8890752 7.49999225,12.1843868 7.49999225,12.5000109 L7.49999225,13.4906328 C7.49999225,13.7687569 7.72811344,14.0046937 8.00623757,14.0000062 C8.27811173,13.9968812 8.49999225,13.7734444 8.49999225,13.5000078 L8.49999225,12.4921984 C8.49999225,12.1781369 8.65154807,11.8875128 8.90154729,11.6984508 C9.26560866,11.4250142 9.49999225,10.9890781 9.49999225,10.5000171 C9.49999225,9.66408217 8.81717256,8.98908426 7.97811266,9.00002173 Z M7.99998915,11.0000186 C7.72498844,11.0000186 7.49998915,10.7750162 7.49998915,10.5000186 C7.49998915,10.2250179 7.72498846,10.0000186 7.99998915,10.0000186 C8.27498673,10.0000186 8.49998915,10.2250179 8.49998915,10.5000186 C8.49998915,10.7750162 8.27498673,11.0000186 7.99998915,11.0000186 Z" id="形状" fill="#686868"></path>
                <path d="M5.12499652,6.00002475 C5.05624674,6.00002475 5.00000621,5.94378122 5.00000621,5.87503142 L5.00000621,4.00003723 C5.00000621,3.19847722 5.31249593,2.44535455 5.87811918,1.87816882 C6.44530491,1.31254559 7.19842759,1.00004655 7.9999876,1.00004655 C8.8015476,1.00004655 9.55467028,1.31254559 10.121856,1.87816882 C10.6874793,2.44535456 10.9999783,3.19847722 10.9999783,4.00003723 L10.9999783,4.03128714 C10.9999783,4.29066133 11.2093526,4.50003567 11.4687268,4.50003569 L11.5312266,4.50003569 C11.7906008,4.50003569 11.9999752,4.29066134 11.9999752,4.03128714 C11.9999752,1.8234815 10.1937308,-0.00776282035 7.98436265,2.47468318e-05 C5.78280697,0.00786212417 4.00000621,1.79535659 4.00000621,4.00003723 L4.00000621,5.87503142 C4.00000621,5.9437812 3.94375018,6.00002475 3.8750004,6.00002475 L3.50000621,6.00002475 C2.67187912,6.00002475 2.00000621,6.67190395 2.00000621,7.50002475 L2.00000621,14.5000047 C2.00000621,15.3281271 2.67187912,16 3.50000621,16 L12.4999736,16 C13.3280961,16 13.999969,15.3281271 13.999969,14.5000047 L13.999969,7.50002475 C13.999969,6.67190395 13.3280961,6.00002475 12.4999736,6.00002475 L5.12499652,6.00002475 Z M12.4999736,15.0000031 L3.50000311,15.0000031 C3.22343991,15.0000031 3.00000311,14.7765663 3.00000311,14.5000047 L3.00000311,7.50002792 C3.00000311,7.22346473 3.22343992,7.00002792 3.50000311,7.00002792 L12.4999736,7.00002792 C12.7765353,7.00002792 12.9999721,7.22346473 12.9999721,7.50002792 L12.9999721,14.5000047 C12.9999721,14.7765663 12.7765353,15.0000031 12.4999736,15.0000031 Z" id="形状" fill="#686868"></path>
            </g>
        </g>
    </g>
</svg>