<?xml version="1.0" encoding="UTF-8"?>
<svg width="16px" height="16px" viewBox="0 0 16 16" version="1.1" xmlns="http://www.w3.org/2000/svg" xmlns:xlink="http://www.w3.org/1999/xlink">
    <title>电话</title>
    <g id="页面-1" stroke="none" stroke-width="1" fill="none" fill-rule="evenodd">
        <g id="发布车位备份" transform="translate(-20.000000, -394.000000)" fill-rule="nonzero">
            <g id="电话" transform="translate(20.000000, 394.000000)">
                <rect id="矩形" fill="#000000" opacity="0" x="0" y="0" width="16" height="16"></rect>
                <path d="M6.973,8.96 C6.48106167,8.49246317 6.05090866,7.96395747 5.693,7.38733333 C6.75216667,6.91116666 7.44516667,5.927 7.44516667,4.73433333 C7.445,3.0405 6.0775,1.66666667 4.38916667,1.66666667 C2.65716667,1.66666667 1.33333333,2.94916667 1.33333333,4.73433333 C1.33333333,7.207 2.62333333,9.868 4.468,11.604 C6.03066667,13.0746667 8.51466667,14.1311667 10.9283333,14.3316667 C10.9413333,14.3328333 10.9545,14.3333333 10.9676667,14.3333333 L11.6108333,14.3333333 C11.8742271,14.3333333 12.08775,14.1198105 12.08775,13.8564167 C12.08775,13.5930229 11.8742271,13.3795 11.6108333,13.3795 L10.9878333,13.3795 C8.78983333,13.1923333 6.51866666,12.2243333 5.12133333,10.9093333 C3.45866666,9.34433333 2.28683333,6.9275 2.28683333,4.73433333 C2.28683333,3.48266666 3.17716666,2.6205 4.38916667,2.6205 C5.54983334,2.6205 6.4915,3.56633333 6.4915,4.73433333 C6.4915,5.67666666 5.8525,6.42166666 4.882,6.66166667 C4.740199,6.69667187 4.62226242,6.79473471 4.56197023,6.92776756 C4.50167804,7.0608004 4.50568128,7.21412793 4.57283333,7.34383333 C5.00366666,8.17683333 5.60466666,8.9755 6.31616667,9.6515 C7.11716667,10.4123333 8.034,10.997 9.0045,11.3415 C9.13827864,11.3890511 9.28629114,11.374492 9.40824079,11.3017863 C9.53019043,11.2290805 9.61338209,11.1057971 9.63516667,10.9655 C9.7985,9.91716667 10.598,9.18383333 11.6108333,9.18383333 C12.7713333,9.18383333 13.7131667,10.1298333 13.7131667,11.2976667 C13.7131667,11.6973333 13.6031667,12.0793333 13.3983333,12.411 C13.2686547,12.6344331 13.3404171,12.9204953 13.5602053,13.05626 C13.7799934,13.1920248 14.0679181,13.1281441 14.2096667,12.9121667 C14.5092607,12.4270076 14.6675292,11.8678729 14.6666702,11.2976667 C14.6666702,9.604 13.299,8.23 11.6108333,8.23 C10.3128333,8.23 9.24816666,9.0485 8.8355,10.2435 C8.1735,9.938 7.54216667,9.50066667 6.973,8.96 Z" id="路径" fill="#686868"></path>
            </g>
        </g>
    </g>
</svg>