<?xml version="1.0" encoding="UTF-8"?>
<svg width="16px" height="16px" viewBox="0 0 16 16" version="1.1" xmlns="http://www.w3.org/2000/svg" xmlns:xlink="http://www.w3.org/1999/xlink">
    <title>3.1-价格</title>
    <g id="页面-1" stroke="none" stroke-width="1" fill="none" fill-rule="evenodd">
        <g id="发布车位备份" transform="translate(-20.000000, -490.000000)" fill-rule="nonzero">
            <g id="3.1-价格" transform="translate(20.000000, 490.000000)">
                <rect id="矩形" fill="#000000" opacity="0" x="0" y="0" width="16" height="16"></rect>
                <path d="M12.7421875,3.259375 C11.4765625,1.9953125 9.79375,1.2984375 8,1.2984375 C6.20625,1.2984375 4.5234375,1.9953125 3.259375,3.259375 C1.9953125,4.5234375 1.2984375,6.2078125 1.2984375,8 C1.2984375,9.79375 1.9953125,11.4765625 3.259375,12.740625 C4.5234375,14.0046875 6.2078125,14.7015625 8,14.7015625 C9.7921875,14.7015625 11.4765625,14.0046875 12.740625,12.740625 C15.3546875,10.1265625 15.3546875,5.8734375 12.7421875,3.259375 Z M12.125,12.125 C11.025,13.225 9.5609375,13.83125 8,13.83125 C6.4390625,13.83125 4.975,13.225 3.875,12.125 C1.6,9.85 1.6,6.1484375 3.875,3.875 C4.975,2.775 6.4390625,2.16875 8,2.16875 C9.559375,2.16875 11.025,2.775 12.125,3.875 C13.225,4.975 13.83125,6.4390625 13.83125,8 C13.83125,9.5609375 13.225,11.025 12.125,12.125 Z M10.4328125,7.9203125 L10.4390625,7.91875 C10.5796875,7.8734375 10.6734375,7.74375 10.6734375,7.596875 C10.6734375,7.4109375 10.5234375,7.2609375 10.3375,7.2609375 L8.3078125,7.2609375 L8.3078125,6.6390625 L10.39375,4.5734375 L10.396875,4.5671875 C10.4109375,4.5390625 10.425,4.4875 10.428125,4.434375 C10.434375,4.3453125 10.4046875,4.2578125 10.34375,4.1875 C10.2875,4.125 10.19375,4.0875 10.090625,4.0875 C10.0015625,4.0875 9.91875,4.115625 9.8640625,4.165625 L7.978125,6.025 L5.9828125,4.0671875 L5.98125,4.065625 C5.9359375,4.0265625 5.8609375,4.003125 5.775,4.003125 C5.665625,4.003125 5.565625,4.040625 5.5140625,4.1 C5.415625,4.2109375 5.4015625,4.3765625 5.4796875,4.5015625 L5.5125,4.5546875 L7.63125,6.6234375 L7.63125,7.2625 L5.5109375,7.278125 L5.5046875,7.278125 L5.4984375,7.2796875 C5.3578125,7.325 5.2640625,7.4546875 5.2640625,7.6 C5.2640625,7.746875 5.3578125,7.875 5.4984375,7.9203125 L5.553125,7.9375 L7.628125,7.9375 L7.628125,8.98125 L5.5078125,8.996875 L5.5015625,8.996875 L5.496875,8.9984375 C5.35625,9.0421875 5.2625,9.171875 5.2625,9.31875 C5.2625,9.465625 5.35625,9.5953125 5.496875,9.640625 L5.55,9.6578125 L7.6265625,9.6578125 L7.628125,11.7328125 L7.6453125,11.7671875 C7.690625,11.9046875 7.81875,11.9984375 7.9640625,11.9984375 C8.1109375,11.9984375 8.2390625,11.9046875 8.284375,11.7640625 L8.3015625,11.709375 L8.3015625,9.6578125 L10.4265625,9.6421875 L10.4328125,9.640625 C10.5734375,9.5953125 10.6671875,9.465625 10.6671875,9.31875 C10.6671875,9.1328125 10.5171875,8.9828125 10.33125,8.9828125 L8.3078125,8.9828125 L8.3078125,7.9375 L10.4328125,7.9203125 Z" id="形状" fill="#686868"></path>
            </g>
        </g>
    </g>
</svg>