<?xml version="1.0" encoding="UTF-8"?>
<svg width="16px" height="16px" viewBox="0 0 16 16" version="1.1" xmlns="http://www.w3.org/2000/svg" xmlns:xlink="http://www.w3.org/1999/xlink">
    <title>搜索</title>
    <g id="页面-1" stroke="none" stroke-width="1" fill="none" fill-rule="evenodd">
        <g id="首页" transform="translate(-34.000000, -116.000000)" fill="#000000" fill-rule="nonzero">
            <g id="搜索" transform="translate(34.000000, 116.000000)">
                <rect id="矩形" opacity="0" x="0" y="0" width="16" height="16"></rect>
                <path d="M14.8980346,14.1911641 L12.5140265,11.6405174 C13.4816059,10.4767344 14.0110869,9.02536536 14.0110869,7.49874014 C14.0110869,3.91600875 11.0949101,0.999832031 7.50949103,0.999832031 C3.92675964,0.999832031 1.01058292,3.91600875 1.01058292,7.49874014 C1.01058292,11.0814715 3.92675964,13.9976483 7.50949103,13.9976483 C8.44750548,13.9976483 9.35326728,13.8014447 10.1998992,13.4144129 C10.452545,13.2988409 10.5627415,13.0031917 10.4471695,12.7532337 C10.3315975,12.500588 10.0359483,12.3903914 9.78599028,12.5059634 C9.06836891,12.8311776 8.30236858,12.9978162 7.50949103,12.9978162 C4.47774233,12.9978162 2.01041494,10.5304888 2.01041494,7.49874014 C2.01041494,4.46699144 4.47774233,1.99966405 7.50949103,1.99966405 C10.5412397,1.99966405 13.0085671,4.46699144 13.0085671,7.49874014 C13.0085671,8.92591972 12.4629599,10.2778431 11.4765665,11.3072401 C11.2857383,11.5061314 11.2911137,11.8232824 11.4900051,12.0141105 C11.5061314,12.0275492 11.5249454,12.0329246 11.5410717,12.0463632 C11.5545104,12.0651772 11.5625735,12.0893667 11.5786998,12.1081808 L14.1642869,14.8738451 C14.2610449,14.9786662 14.3954309,15.0324207 14.5298169,15.0324207 C14.6534521,15.0324207 14.7743995,14.9867294 14.8711574,14.8980346 C15.0754242,14.7098942 15.086175,14.3927432 14.8980346,14.1911641 Z" id="路径"></path>
            </g>
        </g>
    </g>
</svg>