<?xml version="1.0" encoding="UTF-8"?>
<svg width="16px" height="16px" viewBox="0 0 16 16" version="1.1" xmlns="http://www.w3.org/2000/svg" xmlns:xlink="http://www.w3.org/1999/xlink">
    <title>设置</title>
    <g id="页面-1" stroke="none" stroke-width="1" fill="none" fill-rule="evenodd">
        <g id="个人中心" transform="translate(-40.000000, -441.000000)" fill="#000000" fill-rule="nonzero">
            <g id="设置" transform="translate(40.000000, 441.000000)">
                <rect id="矩形" opacity="0" x="0" y="0" width="16" height="16"></rect>
                <path d="M2.9476875,7.75384375 C3.14345312,7.9685625 3.14345312,8.2970625 2.9476875,8.51178125 L2.02625,9.52245313 C2.124396,9.89894072 2.25838301,10.2651604 2.426375,10.6160937 L3.71653125,10.8815937 C4.00128125,10.9401875 4.19446875,11.2061094 4.16217188,11.4950312 L4.02978125,12.6797812 C4.37445871,12.9683974 4.74973666,13.2183592 5.14889062,13.4251875 L6.17507812,12.9596406 C6.44001562,12.8394531 6.75289062,12.941125 6.89657812,13.1940938 L7.40178125,14.0835781 C7.59028036,14.1007923 7.77946651,14.1093751 7.96875,14.1093751 C8.2846875,14.1093751 8.59739062,14.0855625 8.9050625,14.0385312 L9.38467188,13.1940938 C9.52834375,12.941125 9.84123438,12.8394531 10.1061719,12.9596406 L10.9460938,13.3406875 C11.4094901,13.0831177 11.8377134,12.766829 12.2201563,12.3996562 L12.1190625,11.4950156 C12.0867813,11.2061094 12.2799688,10.9401875 12.5647188,10.8815781 L13.4728125,10.6947187 C13.7046528,10.2277246 13.8755812,9.73289879 13.9814063,9.222375 L13.3335625,8.51178125 C13.1377969,8.2970625 13.1377969,7.9685625 13.3335625,7.75384375 L14.0315938,6.98821875 C13.9554994,6.51319296 13.8234019,6.04885349 13.6380625,5.60490625 L12.5647188,5.38403125 C12.2799688,5.3254375 12.0867813,5.05951563 12.1190781,4.77059375 L12.25325,3.56984375 C11.9497284,3.27410992 11.6165478,3.0104316 11.2589844,2.78298438 L10.1061719,3.30598438 C9.84123438,3.42617188 9.52835938,3.3245 9.38467188,3.07153125 L8.70310938,1.87153125 C8.45939579,1.84256303 8.21417915,1.82812484 7.96875,1.82812484 C7.84414063,1.82812484 7.72001563,1.83182813 7.5965,1.83921875 L6.89657813,3.07153125 C6.75290625,3.3245 6.44001563,3.42617188 6.17507813,3.30598438 L4.82423438,2.69315625 C4.53235765,2.86757201 4.25542218,3.06585342 3.99626563,3.28596875 L4.16217188,4.77060938 C4.19446875,5.05951563 4.00128125,5.3254375 3.71654688,5.38404688 L2.2678125,5.68217187 C2.13859238,6.00400161 2.03710355,6.33628277 1.96445313,6.67539063 L2.9476875,7.75382813 L2.9476875,7.75384375 Z M1.7708125,8.1328125 L0.9435,7.225375 C0.827016257,7.09761156 0.7757585,6.92337782 0.8045,6.75289063 C0.908955749,6.1328415 1.09400204,5.52910356 1.3549375,4.95701563 C1.42944084,4.79363901 1.57746744,4.67564966 1.75334375,4.63945312 L2.98714062,4.38554687 L2.84590625,3.12165625 C2.82611913,2.94458873 2.89139006,2.7686163 3.02185937,2.64728125 C3.47627151,2.22455258 3.98284346,1.86162855 4.52926562,1.56732812 C4.68384684,1.48410646 4.86841961,1.47783036 5.02829687,1.55035937 L6.17204687,2.06925 L6.76485937,1.0255 C6.85439175,0.867855133 7.01441739,0.763026992 7.19470312,0.743921875 C7.4518204,0.716702882 7.71019601,0.703124912 7.96875,0.703124912 C8.3659375,0.703124912 8.75929687,0.735046875 9.14620312,0.798125 C9.31419002,0.825516792 9.4607402,0.927498713 9.54479687,1.0755 L10.1092031,2.06925 L11.0637344,1.63620312 C11.2283804,1.5615095 11.4188939,1.57050904 11.5757656,1.66039062 C12.1956719,2.01554688 12.7602812,2.460625 13.2508906,2.97990625 C13.3644918,3.10014038 13.4194132,3.26428167 13.4010469,3.42867187 L13.2941094,4.38554687 L14.1478594,4.56125 C14.3212296,4.59692387 14.4676964,4.71212112 14.5432187,4.87220312 C14.874375,5.57417187 15.0913437,6.3266875 15.1836406,7.1060625 C15.2028306,7.26814064 15.1506779,7.43056274 15.0407187,7.55117187 L14.5104219,8.1328125 L15.0008437,8.67071875 C15.1164932,8.797566 15.1678935,8.97027752 15.1404219,9.13971875 C15.0084769,9.95408402 14.7379244,10.7398088 14.3405156,11.4627656 C14.261132,11.607239 14.1223696,11.7096188 13.9609063,11.7428437 L13.2941094,11.8800625 L13.3682188,12.5433125 C13.3867436,12.7090793 13.3307443,12.8745185 13.2153438,12.9949531 C12.6385156,13.5969219 11.9621875,14.0965469 11.2163594,14.4697969 C11.064633,14.5457247 10.8867413,14.5491121 10.7322344,14.4790156 L10.1092031,14.196375 L9.75228125,14.8247969 C9.67129283,14.9673916 9.53210948,15.0675436 9.37117188,15.0990312 C8.9123125,15.1888125 8.44328125,15.234375 7.96875,15.234375 C7.63526562,15.234375 7.30442187,15.211875 6.97778125,15.1672969 C6.80405229,15.143591 6.65131403,15.0402287 6.56471875,14.8877656 L6.1720625,14.196375 L5.37171875,14.5594687 C5.22217026,14.6273129 5.0504417,14.6264168 4.90160938,14.5570156 C4.22742188,14.2426406 3.60564063,13.8260937 3.05785938,13.3234844 C2.92560121,13.2021269 2.85920365,13.0249352 2.87914063,12.8465469 L2.98714063,11.8800625 L1.93354688,11.66325 C1.76947895,11.6294839 1.62899564,11.5243534 1.55032813,11.3764687 C1.23261323,10.7794349 1.00037369,10.1407157 0.860421875,9.47904687 C0.822954322,9.30187809 0.873073194,9.11750601 0.995078125,8.9836875 L1.77082813,8.1328125 L1.7708125,8.1328125 Z M8,10.765625 C6.47259375,10.765625 5.234375,9.52740625 5.234375,8 C5.234375,6.47259375 6.47259375,5.234375 8,5.234375 C9.52740625,5.234375 10.765625,6.47259375 10.765625,8 C10.765625,9.52740625 9.52740625,10.765625 8,10.765625 Z M8,9.640625 C8.90609375,9.640625 9.640625,8.90609375 9.640625,8 C9.640625,7.09390625 8.90609375,6.359375 8,6.359375 C7.09390625,6.359375 6.359375,7.09390625 6.359375,8 C6.359375,8.90609375 7.09390625,9.640625 8,9.640625 Z" id="形状"></path>
            </g>
        </g>
    </g>
</svg>