<?xml version="1.0" encoding="UTF-8"?>
<svg width="16px" height="16px" viewBox="0 0 16 16" version="1.1" xmlns="http://www.w3.org/2000/svg" xmlns:xlink="http://www.w3.org/1999/xlink">
    <title>发布-24</title>
    <g id="页面-1" stroke="none" stroke-width="1" fill="none" fill-rule="evenodd">
        <g id="个人中心" transform="translate(-40.000000, -363.000000)" fill="#000000" fill-rule="nonzero">
            <g id="发布-24" transform="translate(40.000000, 363.000000)">
                <rect id="矩形" opacity="0" x="0" y="0" width="16" height="16"></rect>
                <path d="M8.6671875,7.3328125 L11.3328125,7.3328125 L11.3328125,8.6671875 L8.6671875,8.6671875 L8.6671875,11.3328125 L7.3328125,11.3328125 L7.3328125,8.6671875 L4.6671875,8.6671875 L4.6671875,7.3328125 L7.3328125,7.3328125 L7.3328125,4.6671875 L8.6671875,4.6671875 L8.6671875,7.3328125 Z M10.734375,15.3328125 L5.265625,15.3328125 C2.7259781,15.3328125 0.6671875,13.2740219 0.6671875,10.734375 L0.6671875,5.265625 C0.6671875,2.7259781 2.7259781,0.6671875 5.265625,0.6671875 L10.734375,0.6671875 C13.2740219,0.6671875 15.3328125,2.7259781 15.3328125,5.265625 L15.3328125,10.734375 C15.3328125,13.2740219 13.2740219,15.3328125 10.734375,15.3328125 Z M5.265625,1.8671875 C3.3887198,1.8671875 1.8671875,3.3887198 1.8671875,5.265625 L1.8671875,10.734375 C1.8671875,12.6112802 3.3887198,14.1328125 5.265625,14.1328125 L10.734375,14.1328125 C12.6112802,14.1328125 14.1328125,12.6112802 14.1328125,10.734375 L14.1328125,5.265625 C14.1328125,3.3887198 12.6112802,1.8671875 10.734375,1.8671875 L5.265625,1.8671875 Z" id="形状"></path>
            </g>
        </g>
    </g>
</svg>