<?xml version="1.0" encoding="UTF-8"?>
<svg width="24px" height="24px" viewBox="0 0 24 24" version="1.1" xmlns="http://www.w3.org/2000/svg" xmlns:xlink="http://www.w3.org/1999/xlink">
    <title>上传</title>
    <g id="页面-1" stroke="none" stroke-width="1" fill="none" fill-rule="evenodd">
        <g id="发布车位备份" transform="translate(-168.000000, -225.000000)" fill-rule="nonzero">
            <g id="编组备份" transform="translate(135.000000, 192.000000)">
                <g id="上传" transform="translate(33.000000, 33.000000)">
                    <rect id="矩形" fill="#000000" opacity="0" x="0" y="0" width="24" height="24"></rect>
                    <path d="M18.7567459,13.0001999 L18.7567459,17.2696382 L5.42074755,17.2696382 L5.42074755,13.0001999 L4.36538077,13.0001999 L4.36538077,17.6294224 C4.36538077,17.9988007 4.68678792,18.325005 5.05136918,18.325005 L19.1740955,18.325005 C19.5386768,18.325005 19.8121127,17.9988007 19.8121127,17.6294224 L19.8121127,13.0001999 L18.7567459,13.0001999 Z M12.4845093,6.26983809 C12.3813712,6.16669997 12.2470518,6.1163302 12.1103338,6.1163302 C11.9856086,6.1163302 11.8608835,6.16190285 11.7601439,6.2506496 C11.7289626,6.26983809 11.7025785,6.2938237 11.6761943,6.32020786 L8.28462921,9.71177295 C8.07835298,9.91804917 8.07835298,10.2514491 8.28462921,10.4577254 C8.49090544,10.6640016 8.8362982,10.6640016 9.04257445,10.4577254 L11.6018389,7.91045374 L11.6018389,15.8472916 C11.6018389,16.1399161 11.8368979,16.374975 12.1295223,16.374975 C12.4221467,16.374975 12.6572057,16.1399161 12.6572057,15.8472916 L12.6572057,7.91045372 L15.1445133,10.4097541 C15.3507895,10.6160304 15.6793924,10.6160304 15.8856686,10.4097541 C16.0919448,10.2034779 16.0895463,9.87007795 15.88327,9.6638017 L12.4845093,6.26983809 Z" id="形状" fill="#969494"></path>
                </g>
            </g>
        </g>
    </g>
</svg>