<?xml version="1.0" encoding="UTF-8"?>
<svg width="16px" height="16px" viewBox="0 0 16 16" version="1.1" xmlns="http://www.w3.org/2000/svg" xmlns:xlink="http://www.w3.org/1999/xlink">
    <title>微信</title>
    <g id="页面-1" stroke="none" stroke-width="1" fill="none" fill-rule="evenodd">
        <g id="发布车位备份" transform="translate(-20.000000, -442.000000)" fill-rule="nonzero">
            <g id="微信" transform="translate(20.000000, 442.000000)">
                <rect id="矩形" fill="#000000" opacity="0" x="0" y="0" width="16" height="16"></rect>
                <path d="M11.9971667,6.39333333 C13.5521667,6.94166667 14.6666667,8.424 14.6666667,10.1666667 C14.6666667,10.834 14.5026667,11.4788333 14.1938333,12.0548333 C14.1658333,12.107 14.1158333,12.1943333 14.0423333,12.3198333 L14.2706667,13.1566667 C14.3723333,13.53 14.03,13.8725 13.6566667,13.7706667 L12.8185,13.542 L12.7211667,13.5993333 C12.100581,13.9715546 11.39032,14.1676874 10.6666667,14.1666667 C9.448,14.1666667 8.35666667,13.6216667 7.62283333,12.7621667 C7.33022823,12.8096586 7.03426749,12.8334581 6.73783333,12.8333333 C5.74816666,12.8333333 4.79616666,12.57 3.96483333,12.0786667 C3.93616666,12.0616667 3.86466666,12.0203333 3.75183333,11.9553333 L2.49333333,12.2936667 C2.11966666,12.3941667 1.77833333,12.0503333 1.88166667,11.6775 L2.22216667,10.447 C2.13699934,10.3060939 2.05415481,10.1637969 1.97366667,10.0201667 C1.55251561,9.24700086 1.33233342,8.3804275 1.33332994,7.5 C1.33332994,4.55283333 3.75466666,2.16666667 6.73783333,2.16666667 C9.2365,2.16666667 11.3938333,3.85433334 11.985,6.21816667 C11.9998333,6.277 12.0033333,6.33616667 11.9971667,6.39316667 L11.9971667,6.39333333 Z M10.933,6.17533333 C10.3575,4.40683333 8.67466667,3.16666667 6.73783333,3.16666667 C4.30366667,3.16666667 2.33333333,5.10833333 2.33333333,7.5 C2.33333333,8.223 2.513,8.91933333 2.852,9.54216667 C2.897,9.62483334 3.011,9.81883334 3.18983333,10.1163333 C3.26042015,10.2337973 3.27970036,10.375085 3.24316667,10.5071667 L3.07883333,11.1008333 L3.69183333,10.936 C3.81958953,10.9016482 3.95575271,10.9193278 4.0705,10.9851667 C4.2935,11.1131667 4.42633333,11.1898333 4.47366667,11.2178333 C5.15946016,11.6225121 5.94154541,11.8351173 6.73783333,11.8333445 C6.834,11.8333445 6.92983333,11.8303333 7.02516667,11.8243333 C6.78811684,11.3038993 6.66584864,10.7385439 6.66666667,10.1666667 C6.66666667,7.9575 8.4575,6.16666667 10.6666667,6.16666667 C10.7561667,6.16666667 10.845,6.16966667 10.933,6.17533333 Z M13.0221667,12.3793333 C12.9865689,12.2488016 13.0053903,12.1094156 13.0743333,11.993 C13.1558057,11.857274 13.2352038,11.7203137 13.3125,11.5821667 C13.5458609,11.1469069 13.6675537,10.6605367 13.6666667,10.1666667 C13.6666667,8.50983334 12.3235,7.16666667 10.6666667,7.16666667 C9.00983334,7.16666667 7.66666667,8.50983334 7.66666667,10.1666667 C7.66666667,11.8235 9.00983334,13.1666667 10.6666667,13.1666667 C11.2091475,13.1676649 11.7416334,13.0207285 12.2068333,12.7416667 C12.2413333,12.721 12.3363333,12.6655 12.4961667,12.5723333 C12.6120042,12.5049357 12.7500494,12.486862 12.8793333,12.5221667 L13.0756667,12.5756667 L13.0221667,12.3793333 L13.0221667,12.3793333 Z M5.16666667,6.66666667 C4.79847684,6.66666667 4.5,6.36818984 4.5,6 C4.5,5.63181016 4.79847684,5.33333333 5.16666667,5.33333333 C5.5348565,5.33333333 5.83333332,5.63181017 5.83333332,6 C5.83333332,6.36818983 5.5348565,6.66666667 5.16666667,6.66666667 L5.16666667,6.66666667 Z M8.16666667,6.66666667 C7.79847684,6.66666667 7.5,6.36818984 7.5,6 C7.5,5.63181016 7.79847684,5.33333333 8.16666667,5.33333333 C8.5348565,5.33333333 8.83333332,5.63181017 8.83333332,6 C8.83333332,6.36818983 8.5348565,6.66666667 8.16666667,6.66666667 L8.16666667,6.66666667 Z M9.5,9.83333333 C9.22385763,9.83333333 9,9.6094757 9,9.33333333 C9,9.05719095 9.22385763,8.83333333 9.5,8.83333333 C9.77614237,8.83333333 10,9.05719095 10,9.33333333 C10,9.6094757 9.77614237,9.83333333 9.5,9.83333333 Z M11.8333333,9.83333333 C11.557191,9.83333333 11.3333333,9.6094757 11.3333333,9.33333333 C11.3333333,9.05719095 11.557191,8.83333333 11.8333333,8.83333333 C12.1094757,8.83333333 12.3333333,9.05719095 12.3333333,9.33333333 C12.3333333,9.6094757 12.1094757,9.83333333 11.8333333,9.83333333 Z" id="形状" fill="#686868"></path>
            </g>
        </g>
    </g>
</svg>