<?xml version="1.0" encoding="UTF-8"?>
<svg width="16px" height="16px" viewBox="0 0 16 16" version="1.1" xmlns="http://www.w3.org/2000/svg" xmlns:xlink="http://www.w3.org/1999/xlink">
    <title>隐私保护</title>
    <g id="页面-1" stroke="none" stroke-width="1" fill="none" fill-rule="evenodd">
        <g id="个人中心" transform="translate(-40.000000, -489.000000)" fill="#000000" fill-rule="nonzero">
            <g id="隐私保护" transform="translate(40.000000, 489.000000)">
                <rect id="矩形" opacity="0" x="0" y="0" width="16" height="16"></rect>
                <path d="M12.4666667,15 L3.53333333,15 C2.33333333,15 1.36666667,14.0333333 1.36666667,12.8333333 L1.36666667,7.7 C1.36666667,6.5 2.33333334,5.53333333 3.53333333,5.53333333 L12.4333333,5.53333333 C13.6333333,5.53333333 14.6,6.5 14.6,7.7 L14.6,12.8333333 C14.6,14.0333333 13.6333333,15 12.4666667,15 Z M3.53333333,6.53333333 C2.9,6.53333333 2.36666667,7.06666666 2.36666667,7.7 L2.36666667,12.8333333 C2.36666667,13.4666667 2.9,14 3.53333333,14 L12.4333333,14 C13.0666667,14 13.6,13.4666667 13.6,12.8333333 L13.6,7.7 C13.6,7.06666667 13.0666667,6.53333333 12.4333333,6.53333333 L3.53333333,6.53333333 Z M12.2333333,6.1 L11.2333333,6.1 L11.2333333,5.2 C11.2333333,3.4 9.8,1.96666667 8,1.96666667 C6.2,1.96666667 4.76666667,3.4 4.76666667,5.2 L4.76666667,6.1 L3.76666667,6.1 L3.76666667,5.2 C3.76666667,2.9 5.66666667,1 8,1 C10.3333333,1 12.2333333,2.9 12.2333333,5.23333333 L12.2333333,6.1 Z M8.5,12.2666667 L7.5,12.2666667 C6.66666667,12.2666667 6,11.6 6,10.7666667 L6,9.76666667 C6,8.93333334 6.66666667,8.26666667 7.5,8.26666667 L8.5,8.26666667 C9.33333333,8.26666667 10,8.93333334 10,9.76666667 L10,10.7666667 C10,11.6 9.33333333,12.2666667 8.5,12.2666667 Z M7.5,9.26666667 C7.23333333,9.26666667 7,9.5 7,9.76666667 L7,10.7666667 C7,11.0333333 7.23333333,11.2666667 7.5,11.2666667 L8.5,11.2666667 C8.76666667,11.2666667 9,11.0333333 9,10.7666667 L9,9.76666667 C9,9.5 8.76666667,9.26666667 8.5,9.26666667 L7.5,9.26666667 Z" id="形状"></path>
            </g>
        </g>
    </g>
</svg>